<?xml version="1.0" encoding="UTF-8"?>
<svg data-bbox="0 -0.01 44.45 38.82" viewBox="0 0 44.46 38.81" xmlns="http://www.w3.org/2000/svg" data-type="color">
    <g>
        <path d="M0 .24h6.52V1.9H2.13v1.79H6.2v1.66H2.13v3.43H0Z" fill="#231f20" data-color="1"/>
        <path d="M15.82 4.52a5.12 5.12 0 0 1-.29 1.71 4.32 4.32 0 0 1-.85 1.44 3.94 3.94 0 0 1-1.35 1 4.31 4.31 0 0 1-1.83.37 4.23 4.23 0 0 1-1.82-.37 3.89 3.89 0 0 1-1.36-1 4.14 4.14 0 0 1-.84-1.44 4.88 4.88 0 0 1-.3-1.71 4.94 4.94 0 0 1 .3-1.72 4.33 4.33 0 0 1 .84-1.44 3.89 3.89 0 0 1 1.36-1 4.38 4.38 0 0 1 1.82-.37 4.46 4.46 0 0 1 1.83.37 3.94 3.94 0 0 1 1.35 1 4.53 4.53 0 0 1 .85 1.44 5.18 5.18 0 0 1 .29 1.72Zm-2.13 0a4.07 4.07 0 0 0-.12-1 2.64 2.64 0 0 0-.38-.87 1.85 1.85 0 0 0-.68-.62 2 2 0 0 0-1-.24 2.49 2.49 0 0 0-.87.16 1.73 1.73 0 0 0-.69.48 2.4 2.4 0 0 0-.45.84 3.79 3.79 0 0 0-.17 1.24 4.36 4.36 0 0 0 .1.94 2.84 2.84 0 0 0 .35.88 2 2 0 0 0 1.73.89 2 2 0 0 0 1-.24 2 2 0 0 0 .68-.63 2.64 2.64 0 0 0 .38-.87 4 4 0 0 0 .12-.96Z" fill="#231f20" data-color="1"/>
        <path d="M17.11.24h4.27a3.46 3.46 0 0 1 2.27.69 2.58 2.58 0 0 1 .82 2.12 2.3 2.3 0 0 1-.48 1.45 2.46 2.46 0 0 1-1.28.86l2 3.43h-2.39l-1.7-3.1h-1.36v3.07h-2.13Zm2.13 3.89h2a1.24 1.24 0 0 0 .83-.27 1.4 1.4 0 0 0 0-1.76 1.24 1.24 0 0 0-.83-.27h-2Z" fill="#231f20" data-color="1"/>
        <path d="M25.72.24h3.13l1.52 6.35L31.93.24h3.1v8.55h-2V2.15l-1.7 6.64h-1.88l-1.74-6.64v6.64h-2Z" fill="#231f20" data-color="1"/>
        <path d="M39.02.24h2.21l3.22 8.55h-2.29l-.43-1.35h-3.11l-.43 1.35h-2.28Zm2.19 5.62-1.05-3.53-1 3.53Z" fill="#231f20" data-color="1"/>
        <path d="M0 14.69h2.13v6.75h3.34v1.8H0Z" fill="#231f20" data-color="1"/>
        <path d="M13.9 20.21a2.92 2.92 0 0 1-1.19 2.49 3.5 3.5 0 0 1-1.17.55 4.5 4.5 0 0 1-2.52 0 3.54 3.54 0 0 1-1.16-.55 2.92 2.92 0 0 1-1.19-2.49v-5.52H8.8v5.39a2.86 2.86 0 0 0 .08.67 1.37 1.37 0 0 0 .25.53 1.12 1.12 0 0 0 .45.34 1.59 1.59 0 0 0 .7.13 1.62 1.62 0 0 0 .7-.13 1.23 1.23 0 0 0 .46-.34 1.53 1.53 0 0 0 .25-.53 2.86 2.86 0 0 0 .08-.67v-5.39h2.13Z" fill="#231f20" data-color="1"/>
        <path d="M22.5 21.53v1.66h-7.34v-1.6l4.75-5.29h-4.37v-1.61h7v1.67l-4.69 5.22Z" fill="#231f20" data-color="1"/>
        <path fill="#231f20" d="M4.38 36.62a2.19 2.19 0 1 1-4.38 0 2.19 2.19 0 0 1 4.38 0z" data-color="1"/>
    </g>
</svg>
